<?xml version="1.0" encoding="UTF-8"?>
<svg width="100px" height="100px" viewBox="0 0 100 100" version="1.1" xmlns="http://www.w3.org/2000/svg" xmlns:xlink="http://www.w3.org/1999/xlink">
    <title>cockatil</title>
    <g id="cockatil" stroke="none" stroke-width="1" fill="none" fill-rule="evenodd">
        <path d="M41.4257813,33.287271 C39.6953769,32.5168269 37.9516226,30.5766159 38.5513822,27.8659607 C40.8449519,27.8659607 41.7557091,29.9116587 41.4257813,33.287271 Z" id="Path" stroke="#979797" fill="#FFFFFF"></path>
        <path d="M38.4257813,39.287271 C36.6953769,38.5168269 34.9516226,36.5766159 35.5513822,33.8659607 C37.8449519,33.8659607 38.7557091,35.9116587 38.4257813,39.287271 Z" id="Path-Copy" stroke="#979797" fill="#FFFFFF"></path>
        <path d="M35.4257813,46.287271 C33.6953769,45.5168269 31.9516226,43.5766159 32.5513822,40.8659607 C34.8449519,40.8659607 35.7557091,42.9116587 35.4257813,46.287271 Z" id="Path-Copy-2" stroke="#979797" fill="#FFFFFF"></path>
        <path d="M34.4257813,53.287271 C32.6953769,52.5168269 30.9516226,50.5766159 31.5513822,47.8659607 C33.8449519,47.8659607 34.7557091,49.9116587 34.4257813,53.287271 Z" id="Path-Copy-3" stroke="#979797" fill="#FFFFFF"></path>
        <path d="M33.4257813,67.287271 C31.6953769,66.5168269 29.9516226,64.5766159 30.5513822,61.8659607 C32.8449519,61.8659607 33.7557091,63.9116587 33.4257813,67.287271 Z" id="Path-Copy-4" stroke="#979797" fill="#FFFFFF"></path>
        <path d="M38.4257813,63.287271 C36.6953769,62.5168269 34.9516226,60.5766159 35.5513822,57.8659607 C37.8449519,57.8659607 38.7557091,59.9116587 38.4257813,63.287271 Z" id="Path-Copy-5" stroke="#979797" fill="#FFFFFF"></path>
        <path d="M42.5024414,55.5704741 C40.772037,54.80003 39.0282828,52.859819 39.6280424,50.1491638 C41.9216121,50.1491638 42.8323693,52.1948618 42.5024414,55.5704741 Z" id="Path-Copy-6" stroke="#979797" fill="#FFFFFF" transform="translate(41.037674, 52.859819) rotate(74.000000) translate(-41.037674, -52.859819) "></path>
        <path d="M44.4257813,46.287271 C42.6953769,45.5168269 40.9516226,43.5766159 41.5513822,40.8659607 C43.8449519,40.8659607 44.7557091,42.9116587 44.4257813,46.287271 Z" id="Path-Copy-7" stroke="#979797" fill="#FFFFFF"></path>
        <path d="M49.4257813,41.287271 C47.6953769,40.5168269 45.9516226,38.5766159 46.5513822,35.8659607 C48.8449519,35.8659607 49.7557091,37.9116587 49.4257813,41.287271 Z" id="Path-Copy-8" stroke="#979797" fill="#FFFFFF" transform="translate(47.961014, 38.576616) rotate(75.000000) translate(-47.961014, -38.576616) "></path>
        <path d="M50.4291992,35.0716948 C48.6987949,34.3012508 46.9550406,32.3610397 47.5548002,29.6503846 C49.8483699,29.6503846 50.7591271,31.6960825 50.4291992,35.0716948 Z" id="Path-Copy-9" stroke="#979797" fill="#FFFFFF" transform="translate(48.964432, 32.361040) rotate(-28.000000) translate(-48.964432, -32.361040) "></path>
        <path d="M57.7858887,37.8121733 C56.0554843,37.0417293 54.31173,35.1015182 54.9114896,32.3908631 C57.2050593,32.3908631 58.1158166,34.436561 57.7858887,37.8121733 Z" id="Path-Copy-10" stroke="#979797" fill="#FFFFFF" transform="translate(56.321122, 35.101518) rotate(57.000000) translate(-56.321122, -35.101518) "></path>
        <path d="M56.4257813,46.287271 C54.6953769,45.5168269 52.9516226,43.5766159 53.5513822,40.8659607 C55.8449519,40.8659607 56.7557091,42.9116587 56.4257813,46.287271 Z" id="Path-Copy-12" stroke="#979797" fill="#FFFFFF"></path>
        <path d="M50.4257813,49.287271 C48.6953769,48.5168269 46.9516226,46.5766159 47.5513822,43.8659607 C49.8449519,43.8659607 50.7557091,45.9116587 50.4257813,49.287271 Z" id="Path-Copy-15" stroke="#979797" fill="#FFFFFF"></path>
        <path d="M52.5048828,55.9308257 C50.7744784,55.1603816 49.0307242,53.2201705 49.6304838,50.5095154 C51.9240535,50.5095154 52.8348107,52.5552133 52.5048828,55.9308257 Z" id="Path-Copy-16" stroke="#979797" fill="#FFFFFF" transform="translate(51.040116, 53.220171) rotate(-47.000000) translate(-51.040116, -53.220171) "></path>
        <path d="M45.9848633,62.752603 C44.2544589,61.982159 42.5107046,60.0419479 43.1104642,57.3312928 C45.404034,57.3312928 46.3147912,59.3769907 45.9848633,62.752603 Z" id="Path-Copy-18" stroke="#979797" fill="#FFFFFF" transform="translate(44.520096, 60.041948) rotate(67.000000) translate(-44.520096, -60.041948) "></path>
        <path d="M53.8154297,63.8353667 C52.0850253,63.0649226 50.341271,61.1247116 50.9410306,58.4140564 C53.2346004,58.4140564 54.1453576,60.4597544 53.8154297,63.8353667 Z" id="Path-Copy-19" stroke="#979797" fill="#FFFFFF" transform="translate(52.350663, 61.124712) rotate(-41.000000) translate(-52.350663, -61.124712) "></path>
        <path d="M44.4257813,71.287271 C42.6953769,70.5168269 40.9516226,68.5766159 41.5513822,65.8659607 C43.8449519,65.8659607 44.7557091,67.9116587 44.4257813,71.287271 Z" id="Path-Copy-20" stroke="#979797" fill="#FFFFFF"></path>
        <path d="M51.4257813,70.287271 C49.6953769,69.5168269 47.9516226,67.5766159 48.5513822,64.8659607 C50.8449519,64.8659607 51.7557091,66.9116587 51.4257813,70.287271 Z" id="Path-Copy-21" stroke="#979797" fill="#FFFFFF" transform="translate(49.961014, 67.576616) rotate(-48.000000) translate(-49.961014, -67.576616) "></path>
        <path d="M62.4257813,66.287271 C60.6953769,65.5168269 58.9516226,63.5766159 59.5513822,60.8659607 C61.8449519,60.8659607 62.7557091,62.9116587 62.4257813,66.287271 Z" id="Path-Copy-22" stroke="#979797" fill="#FFFFFF"></path>
        <path d="M68.4257813,62.287271 C66.6953769,61.5168269 64.9516226,59.5766159 65.5513822,56.8659607 C67.8449519,56.8659607 68.7557091,58.9116587 68.4257813,62.287271 Z" id="Path-Copy-23" stroke="#979797" fill="#FFFFFF"></path>
        <path d="M60.7414551,57.1005034 C59.0110507,56.3300593 57.2672964,54.3898483 57.867056,51.6791931 C60.1606258,51.6791931 61.071383,53.7248911 60.7414551,57.1005034 Z" id="Path-Copy-17" stroke="#979797" fill="#FFFFFF" transform="translate(59.276688, 54.389848) rotate(64.000000) translate(-59.276688, -54.389848) "></path>
        <path d="M64.4257813,39.287271 C62.6953769,38.5168269 60.9516226,36.5766159 61.5513822,33.8659607 C63.8449519,33.8659607 64.7557091,35.9116587 64.4257813,39.287271 Z" id="Path-Copy-11" stroke="#979797" fill="#FFFFFF"></path>
        <path d="M63.4257813,49.287271 C61.6953769,48.5168269 59.9516226,46.5766159 60.5513822,43.8659607 C62.8449519,43.8659607 63.7557091,45.9116587 63.4257813,49.287271 Z" id="Path-Copy-13" stroke="#979797" fill="#FFFFFF"></path>
        <path d="M70.4257813,46.287271 C68.6953769,45.5168269 66.9516226,43.5766159 67.5513822,40.8659607 C69.8449519,40.8659607 70.7557091,42.9116587 70.4257813,46.287271 Z" id="Path-Copy-14" stroke="#979797" fill="#FFFFFF"></path>
    </g>
</svg>