<?xml version="1.0" encoding="UTF-8"?>
<svg width="100px" height="100px" viewBox="0 0 100 100" version="1.1" xmlns="http://www.w3.org/2000/svg" xmlns:xlink="http://www.w3.org/1999/xlink">
    <title>salon-clase</title>
    <g id="salon-clase" stroke="none" stroke-width="1" fill="none" fill-rule="evenodd">
        <rect id="Rectangle" stroke="#979797" fill="#FFFFFF" x="29.5" y="35.5" width="42" height="5" rx="1"></rect>
        <rect id="Rectangle" stroke="#979797" fill="#FFFFFF" x="30.5" y="30.5" width="8" height="5" rx="1"></rect>
        <rect id="Rectangle-Copy" stroke="#979797" fill="#FFFFFF" x="41.5" y="30.5" width="8" height="5" rx="1"></rect>
        <rect id="Rectangle-Copy-2" stroke="#979797" fill="#FFFFFF" x="52.5" y="30.5" width="8" height="5" rx="1"></rect>
        <rect id="Rectangle-Copy-3" stroke="#979797" fill="#FFFFFF" x="62.5" y="30.5" width="8" height="5" rx="1"></rect>
        <rect id="Rectangle" stroke="#979797" fill="#FFFFFF" x="29.5" y="50.5" width="42" height="5" rx="1"></rect>
        <rect id="Rectangle" stroke="#979797" fill="#FFFFFF" x="30.5" y="45.5" width="8" height="5" rx="1"></rect>
        <rect id="Rectangle-Copy" stroke="#979797" fill="#FFFFFF" x="41.5" y="45.5" width="8" height="5" rx="1"></rect>
        <rect id="Rectangle-Copy-2" stroke="#979797" fill="#FFFFFF" x="52.5" y="45.5" width="8" height="5" rx="1"></rect>
        <rect id="Rectangle-Copy-3" stroke="#979797" fill="#FFFFFF" x="62.5" y="45.5" width="8" height="5" rx="1"></rect>
        <rect id="Rectangle" stroke="#979797" fill="#FFFFFF" x="29.5" y="65.5" width="42" height="5" rx="1"></rect>
        <rect id="Rectangle" stroke="#979797" fill="#FFFFFF" x="30.5" y="60.5" width="8" height="5" rx="1"></rect>
        <rect id="Rectangle-Copy" stroke="#979797" fill="#FFFFFF" x="41.5" y="60.5" width="8" height="5" rx="1"></rect>
        <rect id="Rectangle-Copy-2" stroke="#979797" fill="#FFFFFF" x="52.5" y="60.5" width="8" height="5" rx="1"></rect>
        <rect id="Rectangle-Copy-3" stroke="#979797" fill="#FFFFFF" x="62.5" y="60.5" width="8" height="5" rx="1"></rect>
    </g>
</svg>