<?xml version="1.0" encoding="UTF-8"?>
<svg width="42px" height="44px" viewBox="0 0 42 44" version="1.1" xmlns="http://www.w3.org/2000/svg" xmlns:xlink="http://www.w3.org/1999/xlink">
    <title>cleaning-prevention</title>
    <g id="Page-1" stroke="none" stroke-width="1" fill="none" fill-rule="evenodd">
        <g id="Artboard" transform="translate(-1447.000000, -567.000000)" fill-rule="nonzero">
            <g id="limpieza-prevencion" transform="translate(1447.000000, 557.000000)">
                <g id="cleaning-prevention" transform="translate(0.000000, 10.000000)">
                    <path d="M38.125,10 L33.375,10 L32.125,5 L29.875,5 L29.875,2.25 L35,2.25 L35,0 L25,0 C21.6896115,0.0325552625 18.4498715,0.9612807 15.625,2.6875 L16.875,4.5625 C19.3321085,3.08886256 22.135161,2.29107072 25,2.25 L27.625,2.25 L27.625,5 L25.375,5 L24.125,10 L21.4,10 L21.4,12.25 L38.125,12.25 C38.5392135,12.25 38.875,12.5857865 38.875,13 L38.875,40.5 C38.875,40.9142135 38.5392135,41.25 38.125,41.25 L20.625,41.25 C20.2107865,41.25 19.875,40.9142135 19.875,40.5 L19.875,38.625 L17.625,38.625 L17.625,40.5 C17.631849,42.154009 18.970991,43.493151 20.625,43.5 L38.125,43.5 C39.779009,43.493151 41.118151,42.154009 41.125,40.5 L41.125,13 C41.118151,11.345991 39.779009,10.006849 38.125,10 Z M27.125,7.25 L30.375,7.25 L31.0625,10 L26.4375,10 L27.125,7.25 Z M16.25,37.25 L0,37.25 L0,35 L16.25,35 C19.675,35 27.075,29.6125 28.4375,26.1375 C28.8125,25.1625 28.5,24.8875 28.4375,24.775 C27.725,24.1125 26.95,24.575 24.6875,26.5125 C22.425,28.45 19.275,31 15,31 L11.25,31 L11.25,28.75 L15,28.75 C15.275,28.75 15.525,28.75 15.7875,28.6875 C16.3651051,28.6416165 16.9005265,28.3671568 17.275,27.925 C17.6486241,27.3514305 17.8201835,26.6695921 17.7625,25.9875 C15.8423794,26.0053768 13.9262889,25.8083171 12.05,25.4 C11.3792851,25.232624 10.6912481,25.1445216 10,25.1375 C8.37067901,25.1550083 6.83096389,25.8860303 5.7875,27.1375 C4.32791753,28.8056643 2.2165461,29.7587456 0,29.75 L0,27.5 C1.63088872,27.4893115 3.17332964,26.7569954 4.2125,25.5 C5.67208247,23.8318358 7.7834539,22.8787544 10,22.8875 C10.8677268,22.8885626 11.7322079,22.9934754 12.575,23.2 C14.6268503,23.6458579 16.7268166,23.8306549 18.825,23.75 L19.7,23.75 L19.9125,24.6 C20.1067297,25.4616801 20.136417,26.3522984 20,27.225 C21.134643,26.4945786 22.2126892,25.6797763 23.225,24.7875 C25.425,22.9375 27.7,21.0375 29.975,23.1125 C31.0216367,24.1060794 31.2772679,25.6756545 30.6,26.95 C28.85,31.275 20.575,37.25 16.25,37.25 L16.25,37.25 Z" id="Shape" fill="#000000"></path>
                    <path d="M20,16.125 C20,18.1960678 18.3210677,19.875 16.25,19.875 C14.1789323,19.875 12.5,18.1960678 12.5,16.125 C12.5,14.5375 14.7,10.9875 15.725,9.4 C15.8401271,9.221767 16.0378179,9.1141165 16.25,9.1141165 C16.4621821,9.1141165 16.6598729,9.221767 16.775,9.4 C17.8,10.9875 20,14.5375 20,16.125 Z M8.75,13 C8.75,12.675 8.3125,12.3875 7.6125,12.2 C7.03769815,12.036577 6.58842295,11.5873019 6.425,11.0125 C6.25,10.3125 5.95,9.875 5.625,9.875 C5.3,9.875 5.0125,10.3125 4.825,11.0125 C4.65021844,11.6031089 4.17379005,12.0557159 3.575,12.2 C2.875,12.3875 2.4375,12.675 2.4375,13 C2.4375,13.325 2.875,13.6125 3.575,13.8 C4.17379005,13.9442841 4.65021844,14.3968911 4.825,14.9875 C5.0125,15.6875 5.3,16.125 5.625,16.125 C5.95,16.125 6.2375,15.6875 6.425,14.9875 C6.58842295,14.4126981 7.03769815,13.963423 7.6125,13.8 C8.3125,13.625 8.75,13.325 8.75,13 Z M30.3125,17.375 C30.3125,17.025 29.825,16.7125 29.0625,16.5 C28.4239467,16.3249293 27.9250707,15.8260533 27.75,15.1875 C27.5375,14.425 27.225,13.9375 26.875,13.9375 C26.525,13.9375 26.2125,14.425 26,15.1875 C25.8249293,15.8260533 25.3260533,16.3249293 24.6875,16.5 C23.925,16.7125 23.4375,17.025 23.4375,17.375 C23.4375,17.725 23.925,18.0375 24.6875,18.25 C25.3260533,18.4250707 25.8249293,18.9239468 26,19.5625 C26.2125,20.325 26.525,20.8125 26.875,20.8125 C27.225,20.8125 27.5375,20.325 27.75,19.5625 C27.9250707,18.9239468 28.4239467,18.4250708 29.0625,18.25 C29.825,18.0375 30.3125,17.725 30.3125,17.375 Z" id="Shape" fill="#3788FF"></path>
                </g>
            </g>
        </g>
    </g>
</svg>