<?xml version="1.0" encoding="UTF-8"?>
<svg width="50px" height="43px" viewBox="0 0 50 43" version="1.1" xmlns="http://www.w3.org/2000/svg" xmlns:xlink="http://www.w3.org/1999/xlink">
    <title>contacless-policies</title>
    <g id="Page-1" stroke="none" stroke-width="1" fill="none" fill-rule="evenodd">
        <g id="Artboard" transform="translate(-1354.000000, -567.000000)" fill-rule="nonzero">
            <g id="politicas-no-contacto" transform="translate(1354.000000, 557.000000)">
                <g id="contacless-policies" transform="translate(0.000000, 10.000000)">
                    <path d="M18.025,26.3361501 L14.4,26.3361501 C14.4625,25.7111501 14.55,24.8736501 14.625,23.8361501 C14.8872301,22.1906335 14.4322064,20.5115959 13.375,19.2236501 C12.1354544,18.0463979 10.4541612,17.4511293 8.75,17.5861501 L7.775,17.5861501 L6.6875,25.1611501 C6.58886919,25.8321599 6.01570044,26.3310289 5.3375,26.3361501 L0,26.3361501 L0,28.5861501 L3.875,28.5861501 L3.875,38.7111501 C3.87565536,39.183078 3.96909423,39.6502724 4.15,40.0861501 L0,40.0861501 L0,42.3361501 L15,42.3361501 C19.1125,42.3361501 20.5375,35.3986501 21.025,29.5736501 C21.0913906,28.7377168 20.8048795,27.9121515 20.2349145,27.2970643 C19.6649495,26.6819771 18.8635615,26.3335179 18.025,26.3361501 L18.025,26.3361501 Z M15,40.0861501 L7.5,40.0861501 C6.74060848,40.0861501 6.125,39.4705416 6.125,38.7111501 L6.125,28.4986501 C7.5891948,28.1579195 8.69822988,26.9597655 8.925,25.4736501 L9.7125,19.8861501 C10.4736083,19.9195593 11.2008119,20.2104406 11.775,20.7111501 C12.360019,21.5611896 12.5805793,22.6099763 12.3875,23.6236501 C12.2,26.0361501 12.025,27.2861501 12.0125,27.2986501 L11.825,28.5486501 L18.075,28.5486501 C18.2870999,28.5475085 18.4903994,28.6333461 18.6375,28.7861501 C18.7779349,28.9430043 18.8459756,29.1516621 18.825,29.3611501 C18.25,35.7861501 16.7375,40.0861501 15,40.0861501 Z M46.125,28.5861501 L50,28.5861501 L50,26.3361501 L44.6625,26.3361501 C43.9842996,26.3310289 43.4111309,25.8321599 43.3125,25.1611501 L42.225,17.5861501 L41.25,17.5861501 C39.5387826,17.4302188 37.8424035,18.0123541 36.5875,19.1861501 C35.5302936,20.4740959 35.0752699,22.1531335 35.3375,23.7986501 C35.4125,24.8736501 35.5,25.7111501 35.5625,26.2986501 L31.9375,26.2986501 C31.0989385,26.2960179 30.2975505,26.6444771 29.7275855,27.2595643 C29.1576205,27.8746515 28.8711094,28.7002168 28.9375,29.5361501 C29.4625,35.3986501 30.8875,42.3361501 35,42.3361501 L50,42.3361501 L50,40.0861501 L45.85,40.0861501 C46.0309058,39.6502724 46.1243446,39.183078 46.125,38.7111501 L46.125,28.5861501 Z M40,40.0861501 L35,40.0861501 C33.2625,40.0861501 31.75,35.7861501 31.25,29.3861501 C31.2310569,29.1806761 31.2990611,28.9766634 31.4375,28.8236501 C31.5846006,28.6708461 31.7879001,28.5850085 32,28.5861501 L38.25,28.5861501 L38.0625,27.3361501 C38.0625,27.3361501 37.875,26.0861501 37.6875,23.6611501 C37.4944207,22.6474763 37.714981,21.5986896 38.3,20.7486501 C38.8741881,20.2479406 39.6013917,19.9570593 40.3625,19.9236501 L41.15,25.5111501 C41.3767701,26.9972655 42.4858052,28.1954195 43.950003,28.5361501 L43.950003,38.7111501 C43.9505629,39.0891973 43.7954478,39.4507986 43.5211275,39.71093 C43.2468071,39.9710613 42.8774846,40.1067714 42.5,40.0861501 L40,40.0861501 Z" id="Shape" fill="#000000"></path>
                    <path d="M11.9625,13.7986501 L10.7125,13.6861501 C10.5406698,13.6705183 10.382514,13.5859043 10.2741557,13.4516341 C10.1657974,13.3173641 10.1164916,13.1449061 10.1375,12.9736501 C11.1508362,5.54121705 17.498806,0 25,0 C32.501194,0 38.8491638,5.54121705 39.8625,12.9736501 C39.8989959,13.328748 39.6422965,13.646832 39.2875,13.6861501 L38.0375,13.7986501 C37.7054575,13.8209329 37.4141879,13.5791241 37.375,13.2486501 C36.4972327,7.08854616 31.2223272,2.51199214 25,2.51199214 C18.7776728,2.51199214 13.5027673,7.08854616 12.625,13.2486501 C12.5800434,13.5759533 12.2924872,13.8146791 11.9625,13.7986501 Z M17.625,13.7111501 C18.2824741,10.1551876 21.3837669,7.57473915 25,7.57473915 C28.6162331,7.57473915 31.7175259,10.1551876 32.375,13.7111501 C32.4202641,14.043515 32.7153427,14.2839495 33.05,14.2611501 L34.3,14.1486501 C34.4710154,14.1332696 34.628171,14.0482091 34.7345675,13.9134403 C34.8409639,13.7786714 34.887229,13.6060658 34.8625,13.4361501 C34.0712897,8.60089801 29.8933089,5.05101032 24.99375,5.05101032 C20.0941911,5.05101032 15.9162102,8.60089801 15.125,13.4361501 C15.1040027,13.6060851 15.1536444,13.777193 15.262329,13.9095049 C15.3710137,14.0418166 15.5292227,14.1237443 15.7,14.1361501 L16.95,14.2361501 C17.2782437,14.2665444 17.5736605,14.0367758 17.625,13.7111501 L17.625,13.7111501 Z M29.35,14.6236501 C29.5448351,14.6186406 29.7266745,14.5247804 29.8436141,14.3688608 C29.9605539,14.2129411 29.9997446,14.0120945 29.95,13.8236501 C29.375798,11.5547251 27.3342049,9.96543965 24.99375,9.96543965 C22.6532951,9.96543965 20.611702,11.5547251 20.0375,13.8236501 C19.9872681,14.0141886 20.0279717,14.2172475 20.1477596,14.3737053 C20.2675476,14.530163 20.4529551,14.6224329 20.65,14.6236501 L29.35,14.6236501 Z" id="Shape" fill="#3788FF"></path>
                </g>
            </g>
        </g>
    </g>
</svg>