<?xml version="1.0" encoding="UTF-8"?>
<svg width="44px" height="45px" viewBox="0 0 44 45" version="1.1" xmlns="http://www.w3.org/2000/svg" xmlns:xlink="http://www.w3.org/1999/xlink">
    <title>protective-equipment</title>
    <g id="Page-1" stroke="none" stroke-width="1" fill="none" fill-rule="evenodd">
        <g id="Artboard" transform="translate(-1249.000000, -659.000000)" fill-rule="nonzero">
            <g id="equipo-protector" transform="translate(1249.000000, 650.000000)">
                <g id="protective-equipment" transform="translate(0.000000, 9.000000)">
                    <path d="M34.9,27.5 C34.3745416,27.2128378 33.719245,27.3386546 33.3375,27.8 C28.125,34.125 26.4875,33.275 24.7625,32.3875 C23.8672944,31.8393858 22.8484585,31.5255671 21.8,31.475 C20.7515415,31.5255671 19.7327056,31.8393858 18.8375,32.3875 C17.1125,33.275 15.475,34.125 10.2625,27.8 C9.88075504,27.3386546 9.22545843,27.2128378 8.7,27.5 C8.16512936,27.7903169 7.91707379,28.4236503 8.1125,29 C8.325,29.6375 13.5,44.85 21.8,44.85 C30.1,44.85 35.275,29.6375 35.55,29 C35.7356251,28.4079758 35.4589064,27.769394 34.9,27.5 Z" id="Path" fill="#3788FF"></path>
                    <path d="M18.05,26.725 C18.05,27.7605339 17.2105339,28.6 16.175,28.6 C15.1394661,28.6 14.3,27.7605339 14.3,26.725 C14.3,25.6894661 15.1394661,24.85 16.175,24.85 C17.2105339,24.85 18.05,25.6894661 18.05,26.725 Z M27.425,24.85 C26.3894661,24.85 25.55,25.6894661 25.55,26.725 C25.55,27.7605339 26.3894661,28.6 27.425,28.6 C28.4605339,28.6 29.3,27.7605339 29.3,26.725 C29.3,25.6894661 28.4605339,24.85 27.425,24.85 Z M43.575,21.75 C43.575,23.6875 42.1375,25.1875 40.8625,26.5125 L40.525,26.875 C40.4290519,26.9722684 40.3141894,27.0488435 40.1875,27.1 C40.3425821,27.5849903 40.4226724,28.0908236 40.425,28.6 C40.4810176,31.2231089 38.4101361,33.4000463 35.7875,33.475 L35.7875,31.225 C37.1383809,31.0930106 38.1685215,29.9573136 38.1685215,28.6 C38.1685215,27.2426864 37.1383809,26.1069894 35.7875,25.975 C35.2412821,25.9776307 34.7721002,25.5875244 34.675,25.05 L33.8125,20.1125 C23.35,23.675 13.3,21.1875 9.7875,20.1125 L8.925,25.1125 C8.82789981,25.6500244 8.35871789,26.0401308 7.8125,26.0375 C6.46161911,26.1694894 5.43147856,27.3051864 5.43147856,28.6625 C5.43147856,30.0198136 6.46161911,31.1555106 7.8125,31.2875 L7.8125,33.5375 C6.29651319,33.4676885 4.90005049,32.6940825 4.03685889,31.4458879 C3.17366729,30.1976932 2.94274124,28.618058 3.4125,27.175 C3.27376495,27.0988494 3.15075257,26.9970461 3.05,26.875 L2.7125,26.5125 C1.4625,25.1875 0,23.6875 0,21.75 C0.176488713,19.9703145 1.00454231,18.3186593 2.325,17.1125 C2.9907814,16.4499878 3.5476533,15.6863983 3.975,14.85 C4.31747278,13.8305441 4.53162149,12.7723975 4.6125,11.7 C4.8375,9.725 5.0875,7.6875 6.4,6.375 C7.7125,5.0625 9.575,4.9625 11.4,4.8625 C12.4348748,4.87266686 13.4646625,4.71651053 14.45,4.4 C15.3704606,3.9365452 16.2137506,3.33359289 16.95,2.6125 C18.35,1.3625 19.925,0 21.875,0 C23.825,0 25.4,1.3875 26.8,2.6125 C27.5362494,3.33359289 28.3795394,3.9365452 29.3,4.4 C30.2461085,4.69930652 31.2326772,4.85108632 32.225,4.85 C34.025,4.95 35.875,5.05 37.225,6.3625 C38.575,7.675 38.7875,9.7125 39.0125,11.6875 C39.0842499,12.76305 39.2900079,13.8254336 39.625,14.85 C40.0424864,15.6935186 40.5909486,16.4655849 41.25,17.1375 C42.5649963,18.3374168 43.392562,19.9792003 43.575,21.75 L43.575,21.75 Z M41.325,21.75 C41.1105355,20.5251823 40.4789945,19.412257 39.5375,18.6 C38.7222999,17.7493459 38.04724,16.7747283 37.5375,15.7125 C37.1142383,14.5023365 36.8536251,13.241305 36.7625,11.9625 C36.575,10.375 36.375,8.7375 35.6,7.975 C34.825,7.2125 33.5375,7.1875 32.1,7.1125 C30.822733,7.11611241 29.5543209,6.90048234 28.35,6.475 C27.2160371,5.91783678 26.1780385,5.18364263 25.275,4.3 C24.0375,3.225 22.9,2.225 21.8,2.225 C20.7,2.225 19.5625,3.225 18.3625,4.275 C17.4594615,5.15864263 16.4214629,5.89283678 15.2875,6.45 C14.0831791,6.87548234 12.814767,7.09111241 11.5375,7.0875 C10.1,7.1625 8.7375,7.2375 8.0375,7.95 C7.3375,8.6625 7.025,10.35 6.8,11.9375 C6.71076875,13.2177069 6.44578295,14.479544 6.0125,15.6875 C5.52542358,16.7580356 4.86675133,17.7418218 4.0625,18.6 C3.11600999,19.4186175 2.48401166,20.541188 2.275,21.775 C2.275,22.8 3.3375,23.9125 4.35,24.975 L4.55,25.1875 C5.15232071,24.5251365 5.93393638,24.0518248 6.8,23.825 L7.75,18.4 C7.8110325,18.070058 8.01772098,17.7852873 8.3125,17.625 C8.59957024,17.4514298 8.95174998,17.4236261 9.2625,17.55 C9.3875,17.55 21.925,22.325 34.2625,17.55 C34.57325,17.4236261 34.9254298,17.4514298 35.2125,17.625 C35.507279,17.7852873 35.7139675,18.070058 35.775,18.4 L36.8,23.825 C37.6811226,24.0359295 38.4808879,24.5010104 39.1,25.1625 L39.3,24.95 C40.2625,23.8875 41.325,22.775 41.325,21.75 L41.325,21.75 Z" id="Shape" fill="#000000"></path>
                </g>
            </g>
        </g>
    </g>
</svg>