<?xml version="1.0" encoding="UTF-8"?>
<svg width="50px" height="42px" viewBox="0 0 50 42" version="1.1" xmlns="http://www.w3.org/2000/svg" xmlns:xlink="http://www.w3.org/1999/xlink">
    <title>social-distancing</title>
    <g id="Page-1" stroke="none" stroke-width="1" fill="none" fill-rule="evenodd">
        <g id="Artboard" transform="translate(-1249.000000, -567.000000)" fill-rule="nonzero">
            <g id="distanciamiento-social" transform="translate(1249.000000, 557.000000)">
                <g id="social-distancing" transform="translate(0.000000, 10.000000)">
                    <path d="M49.7332881,17.7115235 L44.8216246,21.5365235 C44.6269886,21.6918492 44.3617014,21.7248805 44.1349299,21.6220247 C43.9081584,21.519169 43.7582171,21.2978044 43.7468076,21.0490235 L43.7468076,18.5490235 L35.623191,18.5490235 C35.2780718,18.5490235 34.9982974,18.2692015 34.9982974,17.9240235 L34.9982974,16.6740235 C34.9982974,16.3288455 35.2780718,16.0490235 35.623191,16.0490235 L43.7468076,16.0490235 L43.7468076,13.3615235 C43.7442563,13.10598 43.8888874,12.8717544 44.1184829,12.7596072 C44.3480784,12.6474601 44.6216941,12.6773907 44.8216246,12.8365235 L49.7332881,16.6615235 C49.9008984,16.7838974 50,16.9789709 50,17.1865235 C50,17.3940761 49.9008984,17.5891496 49.7332881,17.7115235 L49.7332881,17.7115235 Z M14.376809,15.8365235 L6.2531924,15.8365235 L6.2531924,13.3365235 C6.25574377,13.08098 6.1111126,12.8467544 5.88151711,12.7346072 C5.65192163,12.6224601 5.3783059,12.6523907 5.17837544,12.8115235 L0.26671185,16.6615235 C0.0991016875,16.7838974 0,16.9789709 0,17.1865235 C0,17.3940761 0.0991016875,17.5891496 0.26671185,17.7115235 L5.17837544,21.5365235 C5.37301139,21.6918492 5.63829859,21.7248805 5.86507011,21.6220247 C6.09184163,21.519169 6.24178291,21.2978044 6.2531924,21.0490235 L6.2531924,18.3365235 L14.376809,18.3365235 C14.7219283,18.3365235 15.0017026,18.0567015 15.0017026,17.7115235 L15.0017026,16.4615235 C15.0017026,16.1163455 14.7219283,15.8365235 14.376809,15.8365235 L14.376809,15.8365235 Z" id="Shape" fill="#3788FF"></path>
                    <path d="M28.3042573,20.0990235 C31.6792573,18.1365235 33.8542573,12.9865235 33.8542573,8.26152348 C33.7469144,4.24444371 30.8371481,0.853187646 26.8830189,0.136728433 C22.9288895,-0.579730767 19.014233,1.57498997 17.5042573,5.29902348 C16.7311018,4.8676507 16.0168664,4.33827622 15.3792573,3.72402348 L13.7542573,5.34902348 C14.6920854,6.24361928 15.7579499,6.99351603 16.9167573,7.57402348 L16.9167573,8.26152348 C16.9167573,13.0240235 19.1292573,18.2615235 22.5417573,20.1365235 C15.4667573,21.1240235 10.1292573,25.4490235 10.1292573,30.6115235 L10.1292573,41.0490235 L12.3792573,41.0490235 L12.3792573,30.6115235 C12.3792573,25.9615235 18.3292573,22.1740235 25.6292573,22.1740235 C32.9292573,22.1740235 38.8792573,25.9240235 38.8792573,30.6115235 L38.8792573,41.0490235 L41.1292573,41.0490235 L41.1292573,30.6115235 C41.1292573,25.3490235 35.5792573,20.9740235 28.3042573,20.0990235 Z M25.3917573,2.1740229 C26.9914289,2.17353518 28.5303956,2.78643765 29.6917573,3.88652348 C27.8207708,5.61829867 25.3782533,6.60153428 22.8292573,6.64902348 C21.723825,6.67358853 20.6218064,6.51736365 19.5667573,6.18652348 C20.4920185,3.773282 22.8072219,2.17847446 25.3917573,2.1740229 L25.3917573,2.1740229 Z M19.1417573,8.42402348 C20.2602318,8.73998392 21.4170114,8.89982983 22.5792573,8.89902348 L22.8417573,8.89902348 C25.8490948,8.84124998 28.737876,7.7158659 30.9917573,5.72402348 C31.3629219,6.50563495 31.5591485,7.3587942 31.5667573,8.22402348 C31.5667573,13.0365235 28.8542573,18.6365235 25.3167573,18.6365235 C21.7792573,18.6365235 19.2417573,13.1990235 19.1792573,8.42402348 L19.1417573,8.42402348 Z M16.3792573,33.5490235 L18.6292573,33.5490235 L18.6292573,41.0490235 L16.3792573,41.0490235 L16.3792573,33.5490235 Z M32.6292573,33.5490235 L34.8792573,33.5490235 L34.8792573,41.0490235 L32.6292573,41.0490235 L32.6292573,33.5490235 Z" id="Shape" fill="#000000"></path>
                </g>
            </g>
        </g>
    </g>
</svg>