<?xml version="1.0" encoding="UTF-8"?>
<svg width="38px" height="44px" viewBox="0 0 38 44" version="1.1" xmlns="http://www.w3.org/2000/svg" xmlns:xlink="http://www.w3.org/1999/xlink">
    <title>staffing-operations</title>
    <g id="Page-1" stroke="none" stroke-width="1" fill="none" fill-rule="evenodd">
        <g id="Artboard" transform="translate(-1354.000000, -660.000000)" fill-rule="nonzero">
            <g id="staff-operaciones" transform="translate(1354.000000, 650.000000)">
                <g id="staffing-operations" transform="translate(0.000000, 10.000000)">
                    <path d="M6.2125,17.9272012 C6.09417959,17.8098471 6.02762605,17.6500997 6.02762605,17.4834512 C6.02762605,17.3168027 6.09417959,17.1570553 6.2125,17.0397012 L7.075,16.2147012 C7.19235413,16.0963808 7.35210154,16.0298272 7.51875,16.0298272 C7.68539846,16.0298272 7.84514588,16.0963808 7.9625,16.2147012 L9.5125,17.8272012 L13.4125,13.9147012 C13.5298541,13.7963808 13.6896015,13.7298272 13.85625,13.7298272 C14.0228985,13.7298272 14.1826459,13.7963808 14.3,13.9147012 L15.1375,14.7522012 C15.2558204,14.8695553 15.322374,15.0293027 15.322374,15.1959512 C15.322374,15.3625997 15.2558204,15.5223471 15.1375,15.6397012 L9.925,20.8647012 C9.67622039,21.1126214 9.27377961,21.1126214 9.025,20.8647012 L6.2125,17.9272012 Z M14.325,21.4397012 C14.2076459,21.3213808 14.0478985,21.2548272 13.88125,21.2548272 C13.7146015,21.2548272 13.5548541,21.3213808 13.4375,21.4397012 L9.5375,25.3522012 L7.9875,23.7397012 C7.87014588,23.6213808 7.71039846,23.5548272 7.54375,23.5548272 C7.37710154,23.5548272 7.21735413,23.6213808 7.1,23.7397012 L6.2375,24.5647012 C6.11917959,24.6820553 6.05262605,24.8418027 6.05262605,25.0084512 C6.05262605,25.1750997 6.11917959,25.3348471 6.2375,25.4522012 L9.075,28.4022012 C9.32377961,28.6501214 9.72622039,28.6501214 9.975,28.4022012 L15.1875,23.1772012 C15.3058204,23.0598471 15.372374,22.9000997 15.372374,22.7334512 C15.372374,22.5668027 15.3058204,22.4070553 15.1875,22.2897012 L14.325,21.4397012 Z M14.325,28.9397012 C14.2076459,28.8213808 14.0478985,28.7548272 13.88125,28.7548272 C13.7146015,28.7548272 13.5548541,28.8213808 13.4375,28.9397012 L9.5375,32.8522012 L7.9875,31.2397012 C7.87014588,31.1213808 7.71039846,31.0548272 7.54375,31.0548272 C7.37710154,31.0548272 7.21735413,31.1213808 7.1,31.2397012 L6.2375,32.0647012 C6.11917959,32.1820553 6.05262605,32.3418027 6.05262605,32.5084512 C6.05262605,32.6750997 6.11917959,32.8348471 6.2375,32.9522012 L9.075,35.9022012 C9.32377961,36.1501214 9.72622039,36.1501214 9.975,35.9022012 L15.1875,30.6772012 C15.3058204,30.5598471 15.372374,30.4000997 15.372374,30.2334512 C15.372374,30.0668027 15.3058204,29.9070553 15.1875,29.7897012 L14.325,28.9397012 Z" id="Shape" fill="#3788FF"></path>
                    <path d="M18.625,17.5397012 L29.875,17.5397012 L29.875,19.7897012 L18.625,19.7897012 L18.625,17.5397012 Z M18.625,27.2897012 L28.625,27.2897012 L28.625,25.0397012 L18.625,25.0397012 L18.625,27.2897012 Z M18.625,34.7897012 L27.375,34.7897012 L27.375,32.5397012 L18.625,32.5397012 L18.625,34.7897012 Z M37.25,9.28970119 L37.25,40.5397012 C37.243151,42.1937102 35.904009,43.5328522 34.25,43.5397012 L3,43.5397012 C1.345991,43.5328522 0.0068489875,42.1937102 0,40.5397012 L0,9.28970119 C0.0068489875,7.63569219 1.345991,6.29655018 3,6.28970119 L10.2,6.28970119 L11.275,3.78970119 L14.4,3.78970119 C14.634921,1.63340305 16.4559427,0 18.625,0 C20.7940573,0 22.615079,1.63340305 22.85,3.78970119 L25.975,3.78970119 L27.05,6.28970119 L34.25,6.28970119 C35.904009,6.29655017 37.243151,7.63569219 37.25,9.28970119 Z M11.5875,8.78970119 L25.6625,8.78970119 L24.4875,6.03970119 L20.3125,6.03970119 L20.5875,4.68970119 C20.5998579,4.5566542 20.5998579,4.42274817 20.5875,4.28970119 C20.5875,3.18513169 19.6920695,2.28970119 18.5875,2.28970119 C17.4829305,2.28970119 16.5875,3.18513169 16.5875,4.28970119 C16.5751421,4.42274817 16.5751421,4.5566542 16.5875,4.68970119 L16.8625,6.03970119 L12.7625,6.03970119 L11.5875,8.78970119 Z M35,9.28970119 C35,8.87548763 34.6642135,8.53970119 34.25,8.53970119 L28,8.53970119 L29.075,11.0397012 L8.1625,11.0397012 L9.2375,8.53970119 L2.9875,8.53970119 C2.57328644,8.53970119 2.2375,8.87548763 2.2375,9.28970119 L2.2375,40.5397012 C2.2375,40.9539147 2.57328644,41.2897012 2.9875,41.2897012 L34.2375,41.2897012 C34.6517135,41.2897012 34.9875,40.9539147 34.9875,40.5397012 L35,9.28970119 Z" id="Shape" fill="#000000"></path>
                </g>
            </g>
        </g>
    </g>
</svg>